<svg width="200" height="200" viewBox="0 0 200 200" xmlns="http://www.w3.org/2000/svg">
  <!-- Background Circle -->
  <circle cx="100" cy="100" r="90" fill="#6366f1" opacity="0.1"/>
  
  <!-- Outer Ring -->
  <circle cx="100" cy="100" r="85" fill="none" stroke="#6366f1" stroke-width="3" opacity="0.3"/>
  
  <!-- Play/Run Symbol -->
  <path d="M 75 60 L 75 140 L 140 100 Z" fill="#6366f1" opacity="0.9"/>
  
  <!-- Code Brackets -->
  <path d="M 50 70 L 40 85 L 40 115 L 50 130" fill="none" stroke="#8b5cf6" stroke-width="4" stroke-linecap="round"/>
  <path d="M 150 70 L 160 85 L 160 115 L 150 130" fill="none" stroke="#8b5cf6" stroke-width="4" stroke-linecap="round"/>
  
  <!-- Multi-language dots (representing polyglot nature) -->
  <circle cx="100" cy="35" r="4" fill="#ec4899"/>
  <circle cx="120" cy="45" r="4" fill="#f59e0b"/>
  <circle cx="130" cy="65" r="4" fill="#10b981"/>
  <circle cx="130" cy="135" r="4" fill="#3b82f6"/>
  <circle cx="120" cy="155" r="4" fill="#8b5cf6"/>
  <circle cx="100" cy="165" r="4" fill="#ef4444"/>
  <circle cx="80" cy="155" r="4" fill="#06b6d4"/>
  <circle cx="70" cy="135" r="4" fill="#f59e0b"/>
  <circle cx="70" cy="65" r="4" fill="#10b981"/>
  <circle cx="80" cy="45" r="4" fill="#ec4899"/>
</svg>
